<svg width="94" height="35" viewBox="0 0 94 35" fill="none" xmlns="http://www.w3.org/2000/svg">
<g clip-path="url(#clip0_989_20159)">
<path d="M59.358 12.5932V34.1855H58.8062V14.2062C58.8062 7.57006 53.401 2.1649 46.7648 2.1649C40.1286 2.1649 34.7376 7.55591 34.7376 14.2062V34.1855H34.1858V12.5932C34.1858 5.63156 39.8173 0 46.779 0C53.7406 0 59.358 5.63156 59.358 12.5932Z" fill="#EA540A"/>
<path d="M57.165 13.8254V32.1492H56.6131V15.2262C56.6131 9.79275 52.1984 5.37806 46.765 5.37806C41.3315 5.37806 36.9168 9.7786 36.9168 15.2121V32.135H36.365V13.8112C36.365 8.06649 41.0202 3.41125 46.765 3.41125C52.5097 3.41125 57.165 8.06649 57.165 13.8112V13.8254Z" fill="#EA540A"/>
<path d="M54.9861 15.0551V30.0961H54.4342V16.2295C54.4342 11.9987 50.9959 8.56036 46.7651 8.56036C42.5344 8.56036 39.096 11.9987 39.096 16.2295V30.0961H38.5442V15.0551C38.5442 10.513 42.2231 6.83411 46.7651 6.83411C51.3072 6.83411 54.9719 10.513 54.9719 15.0551H54.9861Z" fill="#EA540A"/>
<path d="M52.7926 16.2867V28.0592H52.2407V17.2488C52.2407 14.2208 49.7787 11.7729 46.7648 11.7729C43.7509 11.7729 41.2889 14.235 41.2889 17.2488V28.0592H40.7371V16.2867C40.7371 12.9615 43.4396 10.2589 46.7648 10.2589C50.09 10.2589 52.7926 12.9615 52.7926 16.2867Z" fill="#EA540A"/>
<path d="M50.6134 17.5169V26.0209H50.0616V18.2668C50.0616 16.4557 48.59 14.97 46.7647 14.97C44.9394 14.97 43.4679 16.4415 43.4679 18.2668V26.0209H42.916V17.5169C42.916 15.3945 44.6423 13.6682 46.7647 13.6682C48.8872 13.6682 50.5993 15.3945 50.5993 17.5169H50.6134Z" fill="#EA540A"/>
<path d="M48.4204 18.7486V23.9699H47.8686V19.2722C47.8686 18.6638 47.3733 18.1685 46.7649 18.1685C46.1564 18.1685 45.6612 18.6638 45.6612 19.2722V23.9699H45.1094V18.7486C45.1094 17.8289 45.8593 17.0931 46.7649 17.0931C47.6705 17.0931 48.4204 17.8431 48.4204 18.7486Z" fill="#EA540A"/>
</g>
<defs>
<clipPath id="clip0_989_20159">
<rect width="25.1722" height="34.1855" fill="white" transform="translate(34.1858)"/>
</clipPath>
</defs>
</svg>
